<svg xmlns="http://www.w3.org/2000/svg" width="32" height="32" viewBox="0 0 32 32">
  <ellipse cx="16" cy="28" rx="14" ry="2.5" fill="#34313c22" stroke="none" stroke-width="1.8"/>
  <path d="M4 20 Q3 5 16 4 Q29 5 28 20 V24 Q16 30 4 24 Z" fill="#cd775e" stroke="#34313c" stroke-width="2" stroke-linejoin="round" stroke-linecap="round"/>
  <path d="M7 15 Q9 6 17 7 Q24 7 26 12 Q16 9 7 15 Z" fill="#ecc6a3" stroke="none" stroke-width="0" stroke-linejoin="round" stroke-linecap="round"/>
  <path d="M3 19 Q16 15 29 19 L28 22 Q16 19 4 22 Z" fill="#a6574d" stroke="#34313c" stroke-width="1.5" stroke-linejoin="round" stroke-linecap="round"/>
  <path d="M12 27 V23 Q16 17 20 23 V27 Z" fill="#34313c" stroke="#34313c" stroke-width="1" stroke-linejoin="round" stroke-linecap="round"/>
  <path d="M5 25 Q5 21 8 21 Q11 21 11 25 Z" fill="#f4bd62" stroke="#34313c" stroke-width="1.2" stroke-linejoin="round" stroke-linecap="round"/>
  <path d="M23 23 Q26 21 29 23 L28 28 H24 Z" fill="#74717e" stroke="#34313c" stroke-width="1.2" stroke-linejoin="round" stroke-linecap="round"/>
  <ellipse cx="25.5" cy="23" rx="1.2" ry="1.2" fill="#f4bd62" stroke="none" stroke-width="1.8"/>
  <ellipse cx="28" cy="23" rx="1.2" ry="1.2" fill="#ecc6a3" stroke="none" stroke-width="1.8"/>
</svg>
