<svg xmlns="http://www.w3.org/2000/svg" width="32" height="32" viewBox="0 0 32 32">
  <ellipse cx="16" cy="28" rx="9" ry="2" fill="#282a3033" stroke="none" stroke-width="1.8"/>
  <path d="M11 22 L9 29 H14 L16 24 L18 29 H23 L21 22" fill="#282a30" stroke="#282a30" stroke-width="1.6" stroke-linejoin="round" stroke-linecap="round"/>
  <path d="M9 15 L16 12 L23 15 L25 24 L16 27 L7 24 Z" fill="#bd543b" stroke="#282a30" stroke-width="2" stroke-linejoin="round" stroke-linecap="round"/>
  <path d="M10 17 L6 23 M22 17 L26 23" fill="none" stroke="#282a30" stroke-width="4" stroke-linejoin="round" stroke-linecap="round"/>
  <path d="M10 17 L6 23 M22 17 L26 23" fill="none" stroke="#eddbba" stroke-width="2" stroke-linejoin="round" stroke-linecap="round"/>
  <path d="M10 6 L15 3 L21 5 L23 11 L20 16 H12 L9 11 Z" fill="#eddbba" stroke="#282a30" stroke-width="2" stroke-linejoin="round" stroke-linecap="round"/>
  <path d="M10 9 L9 6 L15 2 L21 4 L23 9 L18 7 L15 9 Z" fill="#282a30" stroke="#282a30" stroke-width="1.5" stroke-linejoin="round" stroke-linecap="round"/>
  <path d="M12 11 H14 M18 11 H20" fill="none" stroke="#282a30" stroke-width="1.5" stroke-linejoin="round" stroke-linecap="round"/>
  <path d="M12 18 L16 21 L20 18" fill="none" stroke="#efb44e" stroke-width="2" stroke-linejoin="round" stroke-linecap="round"/>
</svg>
